<?xml version="1.0" encoding="UTF-8"?>
<svg xmlns="http://www.w3.org/2000/svg" xmlns:xlink="http://www.w3.org/1999/xlink" viewBox="203.18 108.42 145.91 100.75" preserveAspectRatio="xMidYMid" width="100%" height="100%">
<clipPath id="61"><rect x="0.5" y="0.5" width="539" height="719"/>
</clipPath>
<g id="drawing"><rect x="203.18" y="108.42" width="100%" height="100%" fill="rgb(255, 255, 255)"/><g id="page" clip-path="url(#61)"><g><text xml:space="preserve" text-anchor="start" text-rendering="geometricPrecision">
<tspan x="270.53" y="146.88" font-family="Arial" font-size="10" fill="rgb(0, 0, 0)">C</tspan>
</text></g><g><text xml:space="preserve" text-anchor="start" text-rendering="geometricPrecision">
<tspan x="240.53" y="138.53" font-family="Arial" font-size="10" fill="rgb(0, 0, 0)">H</tspan>
<tspan x="240.53" font-family="Arial" font-size="10" fill="rgb(0, 0, 0)" y="147.27">C</tspan>
</text></g><g id="Solid">
<path d="M269.1 142.75 L269.1 142.75 L269.1 143.25 L269.1 143.75 L249.4 143.75 L249.4 143.25 L249.4 142.75 Z" stroke="rgb(0, 0, 0)" stroke-width="0" fill-rule="evenodd" stroke-linejoin="miter" fill="rgb(0, 0, 0)" shape-rendering="geometricPrecision"/></g><g>
<text xml:space="preserve" text-anchor="start" text-rendering="geometricPrecision">
<tspan x="300.53" y="138.53" font-family="Arial" font-size="10" fill="rgb(0, 0, 0)">H</tspan>
<tspan x="300.53" font-family="Arial" font-size="10" fill="rgb(0, 0, 0)" y="146.27">C</tspan>
</text></g><g id="Solid">
<path d="M279.4 143.75 L279.4 143.75 L279.4 143.25 L279.4 142.75 L299.13 142.75 L299.13 143.25 L299.13 143.75 Z" stroke="rgb(0, 0, 0)" stroke-width="0" fill-rule="evenodd" stroke-linejoin="miter" fill="rgb(0, 0, 0)" shape-rendering="geometricPrecision"/>
</g><g>
<text xml:space="preserve" text-anchor="start" text-rendering="geometricPrecision">
<tspan x="270.53" y="176.88" font-family="Arial" font-size="10" fill="rgb(0, 0, 0)">CH</tspan><tspan font-family="Arial" dy="2.26" font-size="7.5" fill="rgb(0, 0, 0)">2</tspan>
</text></g><g id="Solid">
<path d="M273.63 149.1 L273.63 149.1 L274.13 149.1 L274.63 149.1 L274.63 167.7 L274.13 167.7 L273.63 167.7 Z" stroke="rgb(0, 0, 0)" stroke-width="0" fill-rule="evenodd" stroke-linejoin="miter" fill="rgb(0, 0, 0)" shape-rendering="geometricPrecision"/></g><g>
<text xml:space="preserve" text-anchor="start" text-rendering="geometricPrecision">
<tspan x="270.22" y="116.88" font-family="Arial" font-size="10" fill="rgb(0, 0, 0)">OH</tspan>
</text></g>
<g id="Solid">
<path d="M274.63 137.7 L274.63 137.7 L274.13 137.7 L273.63 137.7 L273.63 119.1 L274.13 119.1 L274.63 119.1 Z" stroke="rgb(0, 0, 0)" stroke-width="0" fill-rule="evenodd" stroke-linejoin="miter" fill="rgb(0, 0, 0)" shape-rendering="geometricPrecision"/></g><g>
<text xml:space="preserve" text-anchor="start" text-rendering="geometricPrecision"><tspan x="330.53" y="146.88" font-family="Arial" font-size="10" fill="rgb(0, 0, 0)">CH</tspan><tspan font-family="Arial" dy="2.26" font-size="7.5" fill="rgb(0, 0, 0)">2</tspan></text></g><g id="Solid">
<path d="M309.4 143.75 L309.4 143.75 L309.4 143.25 L309.4 142.75 L329.1 142.75 L329.1 143.25 L329.1 143.75 Z" stroke="rgb(0, 0, 0)" stroke-width="0" fill-rule="evenodd" stroke-linejoin="miter" fill="rgb(0, 0, 0)" shape-rendering="geometricPrecision"/></g><g>
<text xml:space="preserve" text-anchor="start" text-rendering="geometricPrecision"><tspan x="270.53" y="206.88" font-family="Arial" font-size="10" fill="rgb(0, 0, 0)">CH</tspan><tspan font-family="Arial" dy="2.26" font-size="7.5" fill="rgb(0, 0, 0)">3</tspan></text></g><g id="Solid">
<path d="M273.63 179.1 L273.63 179.1 L274.13 179.1 L274.63 179.1 L274.63 197.7 L274.13 197.7 L273.63 197.7 Z" stroke="rgb(0, 0, 0)" stroke-width="0" fill-rule="evenodd" stroke-linejoin="miter" fill="rgb(0, 0, 0)" shape-rendering="geometricPrecision"/></g><g>
<text xmlns="http://www.w3.org/2000/svg" xml:space="preserve" text-anchor="end" text-rendering="geometricPrecision"><tspan x="221.74" font-family="Arial" font-size="10" fill="rgb(0, 0, 0)" y="161.88">H</tspan><tspan font-family="Arial" dy="2.26" font-size="7.5" fill="rgb(0, 0, 0)">3</tspan><tspan font-family="Arial" dy="-2.26" font-size="10" fill="rgb(0, 0, 0)">C</tspan></text>
</g><g id="Solid"><path d="M239.55 145.32 L239.55 145.32 L239.8 145.75 L240.05 146.18 L223.18 155.92 L222.93 155.48 L222.68 155.05 Z" stroke="rgb(0, 0, 0)" stroke-width="0" fill-rule="evenodd" stroke-linejoin="miter" fill="rgb(0, 0, 0)" shape-rendering="geometricPrecision"/></g><g>
<text xml:space="preserve" text-anchor="end" text-rendering="geometricPrecision"><tspan x="221.74" y="131.88" font-family="Arial" font-size="10" fill="rgb(0, 0, 0)">H</tspan><tspan font-family="Arial" dy="2.26" font-size="7.5" fill="rgb(0, 0, 0)">3</tspan><tspan font-family="Arial" dy="-2.26" font-size="10" fill="rgb(0, 0, 0)">C</tspan></text></g>
<g id="Solid">
<path d="M240.05 140.32 L240.05 140.32 L239.8 140.75 L239.55 141.18 L222.88 131.56 L223.13 131.13 L223.38 130.7 Z" stroke="rgb(0, 0, 0)" stroke-width="0" fill-rule="evenodd" stroke-linejoin="miter" fill="rgb(0, 0, 0)" shape-rendering="geometricPrecision"/></g><g><text xml:space="preserve" text-anchor="start" text-rendering="geometricPrecision">
<tspan x="268.41" y="129.25" font-family="Times New Roman" font-size="6" fill="rgb(191, 191, 191)">A</tspan></text>
</g><g><text xml:space="preserve" text-anchor="start" text-rendering="geometricPrecision"><tspan x="286.69" y="142.7" font-family="Times New Roman" font-size="6" fill="rgb(191, 191, 191)">B</tspan></text></g><g>
<text xml:space="preserve" text-anchor="start" text-rendering="geometricPrecision"><tspan x="276.09" y="160" font-family="Times New Roman" font-size="6" fill="rgb(191, 191, 191)">C</tspan>
</text></g><g><text xml:space="preserve" text-anchor="start" text-rendering="geometricPrecision"><tspan x="257.58" y="150.2" font-family="Times New Roman" font-size="6" fill="rgb(191, 191, 191)">D</tspan></text></g>
<g><text xml:space="preserve" text-anchor="start" text-rendering="geometricPrecision"><tspan x="300.53" y="167.13" font-family="Arial" font-size="10" fill="rgb(78, 78, 78)">C</tspan>
</text></g><g id="Solid"><path d="M303.63 148.25 L303.63 148.25 L304.13 148.25 L304.63 148.25 L304.63 157.9 L304.13 157.9 L303.63 157.9 Z" stroke="rgb(78, 78, 78)" stroke-width="0" fill-rule="evenodd" stroke-linejoin="miter" fill="rgb(78, 78, 78)" shape-rendering="geometricPrecision"/></g></g></g>
</svg>