<?xml version="1.0"?><svg xmlns="http://www.w3.org/2000/svg" xmlns:xlink="http://www.w3.org/1999/xlink" viewBox="264.75 81.04 63.38 8.93" preserveAspectRatio="xMidYMid" width="100%" height="100%"><clipPath id="38"><rect x="0.5" y="0.5" width="539" height="719" /></clipPath><g id="drawing"><rect x="264.75" y="81.04" width="100%" height="100%" fill="rgb(255, 255, 255)" /><g id="page" clip-path="url(#38)"><g><text xml:space="preserve" text-anchor="start" text-rendering="geometricPrecision"><tspan x="277.66" y="89.5" font-family="Arial" font-size="10" fill="rgb(0, 0, 0)">C</tspan></text></g><g><text xml:space="preserve" text-anchor="start" text-rendering="geometricPrecision"><tspan x="307.66" y="89.5" font-family="Arial" font-size="10" fill="rgb(0, 0, 0)">C</tspan></text></g><g id="Solid"><path d="M286.5 86.38 L286.5 86.38 L286.5 85.88 L286.5 85.38 L306.2 85.38 L306.2 85.88 L306.2 86.38 Z" stroke="rgb(0, 0, 0)" stroke-width="0" fill-rule="evenodd" stroke-linejoin="miter" fill="rgb(0, 0, 0)" shape-rendering="geometricPrecision" /><line x1="286.5" y1="88.85" x2="306.2" y2="88.85" stroke="rgb(0, 0, 0)" stroke-width="1" shape-rendering="auto" /><line x1="286.5" y1="82.91" x2="306.2" y2="82.91" stroke="rgb(0, 0, 0)" stroke-width="1" shape-rendering="auto" /></g><g id="Solid"><path d="M316.5 86.38 L316.5 86.38 L316.5 85.88 L316.5 85.38 L328.13 85.38 L328.13 85.88 L328.13 86.38 Z" stroke="rgb(0, 0, 0)" stroke-width="0" fill-rule="evenodd" stroke-linejoin="miter" fill="rgb(0, 0, 0)" shape-rendering="geometricPrecision" /></g><g id="Solid"><path d="M276.2 85.38 L276.2 85.38 L276.2 85.88 L276.2 86.38 L264.75 86.38 L264.75 85.88 L264.75 85.38 Z" stroke="rgb(0, 0, 0)" stroke-width="0" fill-rule="evenodd" stroke-linejoin="miter" fill="rgb(0, 0, 0)" shape-rendering="geometricPrecision" /></g></g></g></svg>