<?xml version="1.0"?><svg xmlns="http://www.w3.org/2000/svg" xmlns:xlink="http://www.w3.org/1999/xlink" viewBox="258.49 36.04 66.91 53.58" preserveAspectRatio="xMidYMid" width="100%" height="100%"><clipPath id="85"><rect x="0.5" y="0.5" width="539" height="719" /></clipPath><g id="drawing"><rect x="258.49" y="36.04" width="100%" height="100%" fill="rgb(255, 255, 255)" /><g id="page" clip-path="url(#85)"><g><text xml:space="preserve" text-anchor="start" text-rendering="geometricPrecision"><tspan x="258.49" y="89.45" font-family="Arial" font-size="10" fill="rgb(0, 0, 0)">R</tspan></text></g><g id="Solid"><path d="M288.38 70.3 L288.38 70.3 L288.38 70.88 L288.38 71.46 L266.98 83.81 L266.73 83.37 L266.48 82.94 Z" stroke="rgb(0, 0, 0)" stroke-width="0" fill-rule="evenodd" stroke-linejoin="miter" fill="rgb(0, 0, 0)" shape-rendering="geometricPrecision" /></g><g><text xml:space="preserve" text-anchor="start" text-rendering="geometricPrecision"><tspan x="310.45" y="89.5" font-family="Arial" font-size="10" fill="rgb(0, 0, 0)">OH</tspan></text></g><g id="Solid"><path d="M288.38 71.46 L288.38 71.46 L288.38 70.88 L288.38 70.3 L309.72 82.61 L309.47 83.05 L309.22 83.48 Z" stroke="rgb(0, 0, 0)" stroke-width="0" fill-rule="evenodd" stroke-linejoin="miter" fill="rgb(0, 0, 0)" shape-rendering="geometricPrecision" /></g><g><text xml:space="preserve" text-anchor="start" text-rendering="geometricPrecision"><tspan x="284.47" y="44.5" font-family="Arial" font-size="10" fill="rgb(0, 0, 0)">O</tspan></text></g><g id="Solid"><line x1="286.58" y1="70.88" x2="286.58" y2="46.7" stroke="rgb(0, 0, 0)" stroke-width="1" shape-rendering="auto" /><path d="M289.68 71.05 L289.68 71.05 L290.68 71.63 L290.68 46.7 L289.68 46.7 Z" stroke="rgb(0, 0, 0)" stroke-width="0" fill-rule="evenodd" stroke-linejoin="miter" fill="rgb(0, 0, 0)" shape-rendering="geometricPrecision" /><path d="M286.08 71.63 L286.08 71.63 L287.08 71.05 L287.08 46.7 L286.08 46.7 Z" stroke="rgb(0, 0, 0)" stroke-width="0" fill-rule="evenodd" stroke-linejoin="miter" fill="rgb(0, 0, 0)" shape-rendering="geometricPrecision" /></g></g></g></svg>