<?xml version="1.0"?><svg xmlns="http://www.w3.org/2000/svg" xmlns:xlink="http://www.w3.org/1999/xlink" viewBox="273.76 30.79 50.26 51.1" preserveAspectRatio="xMidYMid" width="100%" height="100%"><clipPath id="96"><rect x="0.5" y="0.5" width="539" height="719" /></clipPath><g id="drawing"><rect x="273.76" y="30.79" width="100%" height="100%" fill="rgb(255, 255, 255)" /><g id="page" clip-path="url(#96)"><g><text xml:space="preserve" text-anchor="start" text-rendering="geometricPrecision"><tspan x="273.76" y="39.46" font-family="Arial" font-size="10" fill="rgb(0, 0, 0)">R</tspan></text></g><g><text xml:space="preserve" text-anchor="start" text-rendering="geometricPrecision"><tspan x="295.45" y="60.56" font-family="Arial" font-size="10" fill="rgb(0, 0, 0)">C</tspan></text></g><g id="Solid"><path d="M281.97 40.84 L281.97 40.84 L282.33 40.48 L282.68 40.12 L295.33 52.57 L294.97 52.93 L294.62 53.29 Z" stroke="rgb(0, 0, 0)" stroke-width="0" fill-rule="evenodd" stroke-linejoin="miter" fill="rgb(0, 0, 0)" shape-rendering="geometricPrecision" /></g><g><text xml:space="preserve" text-anchor="start" text-rendering="geometricPrecision"><tspan x="316.49" y="39.13" font-family="Arial" font-size="10" fill="rgb(0, 0, 0)">H</tspan></text></g><g id="Solid"><path d="M303.66 52.95 L303.66 52.95 L303.3 52.6 L302.95 52.25 L315.54 39.47 L315.9 39.82 L316.25 40.17 Z" stroke="rgb(0, 0, 0)" stroke-width="0" fill-rule="evenodd" stroke-linejoin="miter" fill="rgb(0, 0, 0)" shape-rendering="geometricPrecision" /></g><g><text xml:space="preserve" text-anchor="start" text-rendering="geometricPrecision"><tspan x="316.82" y="81.56" font-family="Arial" font-size="10" fill="rgb(0, 0, 0)">H</tspan></text></g><g id="Solid"><path d="M303.07 61.6 L303.07 61.6 L303.43 61.25 L303.78 60.89 L316.63 73.54 L316.27 73.9 L315.92 74.26 Z" stroke="rgb(0, 0, 0)" stroke-width="0" fill-rule="evenodd" stroke-linejoin="miter" fill="rgb(0, 0, 0)" shape-rendering="geometricPrecision" /></g><g><text xml:space="preserve" text-anchor="start" text-rendering="geometricPrecision"><tspan x="274.08" y="81.89" font-family="Arial" font-size="10" fill="rgb(0, 0, 0)">R</tspan></text></g><g id="Solid"><path d="M294.64 60.69 L294.64 60.69 L295 61.04 L295.35 61.39 L282.36 74.58 L282 74.23 L281.65 73.88 Z" stroke="rgb(0, 0, 0)" stroke-width="0" fill-rule="evenodd" stroke-linejoin="miter" fill="rgb(0, 0, 0)" shape-rendering="geometricPrecision" /></g></g></g></svg>