<?xml version="1.0"?><svg xmlns="http://www.w3.org/2000/svg" xmlns:xlink="http://www.w3.org/1999/xlink" viewBox="267.72 7.54 63.41 71.46" preserveAspectRatio="xMidYMid" width="100%" height="100%"><clipPath id="96"><rect x="0.5" y="0.5" width="539" height="719" /></clipPath><g id="drawing"><rect x="267.72" y="7.54" width="100%" height="100%" fill="rgb(255, 255, 255)" /><g id="page" clip-path="url(#96)"><g><text xml:space="preserve" text-anchor="end" text-rendering="geometricPrecision"><tspan x="279.08" y="60.95" font-family="Arial" font-size="10" fill="rgb(0, 0, 0)">R</tspan><tspan font-family="Arial" dy="2.26" font-size="7.5" fill="rgb(0, 0, 0)">1</tspan></text></g><g><text xml:space="preserve" text-anchor="start" text-rendering="geometricPrecision"><tspan x="298.5" y="46" font-family="Arial" font-size="10" fill="rgb(0, 0, 0)">S</tspan><tspan font-family="Arial" dy="-4.07" font-size="7.5" fill="rgb(0, 0, 0)">+</tspan></text></g><g id="Solid"><path d="M280.46 55.31 L280.46 55.31 L280.21 54.88 L279.96 54.45 L297.02 44.6 L297.27 45.03 L297.52 45.46 Z" stroke="rgb(0, 0, 0)" stroke-width="0" fill-rule="evenodd" stroke-linejoin="miter" fill="rgb(0, 0, 0)" shape-rendering="geometricPrecision" /></g><g><text xml:space="preserve" text-anchor="start" text-rendering="geometricPrecision"><tspan x="323.93" y="60.95" font-family="Arial" font-size="10" fill="rgb(0, 0, 0)">R</tspan><tspan x="323.93" y="78.28" font-family="Arial" font-size="10" fill="rgb(0, 0, 0)">2</tspan></text></g><g id="Solid"><path d="M306.18 45.45 L306.18 45.45 L306.43 45.02 L306.68 44.59 L323.32 54.19 L323.07 54.62 L322.82 55.06 Z" stroke="rgb(0, 0, 0)" stroke-width="0" fill-rule="evenodd" stroke-linejoin="miter" fill="rgb(0, 0, 0)" shape-rendering="geometricPrecision" /></g><g><text xml:space="preserve" text-anchor="start" text-rendering="geometricPrecision"><tspan x="297.95" y="16" font-family="Arial" font-size="10" fill="rgb(0, 0, 0)">O</tspan><tspan font-family="Arial" dy="-4.07" font-size="7.5" fill="rgb(0, 0, 0)">-</tspan></text></g><g id="Solid"><path d="M302.36 36.8 L302.36 36.8 L301.86 36.8 L301.36 36.8 L301.36 18.2 L301.86 18.2 L302.36 18.2 Z" stroke="rgb(0, 0, 0)" stroke-width="0" fill-rule="evenodd" stroke-linejoin="miter" fill="rgb(0, 0, 0)" shape-rendering="geometricPrecision" /></g></g></g></svg>