<?xml version="1.0"?><svg xmlns="http://www.w3.org/2000/svg" xmlns:xlink="http://www.w3.org/1999/xlink" viewBox="265.59 22.88 67.52 67.69" preserveAspectRatio="xMidYMid" width="100%" height="100%"><clipPath id="96"><rect x="0.5" y="0.5" width="539" height="719" /></clipPath><g id="drawing"><rect x="265.59" y="22.88" width="100%" height="100%" fill="rgb(255, 255, 255)" /><g id="page" clip-path="url(#96)"><g><text xml:space="preserve" text-anchor="start" text-rendering="geometricPrecision"><tspan x="265.59" y="60.57" font-family="Arial" font-size="10" fill="rgb(0, 0, 0)">R</tspan></text></g><g><text xml:space="preserve" text-anchor="start" text-rendering="geometricPrecision"><tspan x="295.91" y="60.63" font-family="Arial" font-size="10" fill="rgb(0, 0, 0)">C</tspan></text></g><g id="Solid"><path d="M273.8 57.5 L273.8 57.5 L273.8 57 L273.8 56.5 L294.5 56.5 L294.5 57 L294.5 57.5 Z" stroke="rgb(0, 0, 0)" stroke-width="0" fill-rule="evenodd" stroke-linejoin="miter" fill="rgb(0, 0, 0)" shape-rendering="geometricPrecision" /></g><g><text xml:space="preserve" text-anchor="start" text-rendering="geometricPrecision"><tspan x="295.59" y="30.57" font-family="Arial" font-size="10" fill="rgb(0, 0, 0)">R</tspan></text></g><g id="Solid"><path d="M300 51.4 L300 51.4 L299.5 51.4 L299 51.4 L299 32.6 L299.5 32.6 L300 32.6 Z" stroke="rgb(0, 0, 0)" stroke-width="0" fill-rule="evenodd" stroke-linejoin="miter" fill="rgb(0, 0, 0)" shape-rendering="geometricPrecision" /></g><g><text xml:space="preserve" text-anchor="start" text-rendering="geometricPrecision"><tspan x="325.91" y="60.57" font-family="Arial" font-size="10" fill="rgb(0, 0, 0)">H</tspan></text></g><g id="Solid"><path d="M304.8 57.5 L304.8 57.5 L304.8 57 L304.8 56.5 L324.8 56.5 L324.8 57 L324.8 57.5 Z" stroke="rgb(0, 0, 0)" stroke-width="0" fill-rule="evenodd" stroke-linejoin="miter" fill="rgb(0, 0, 0)" shape-rendering="geometricPrecision" /></g><g><text xml:space="preserve" text-anchor="start" text-rendering="geometricPrecision"><tspan x="295.59" y="90.57" font-family="Arial" font-size="10" fill="rgb(0, 0, 0)">R</tspan></text></g><g id="Solid"><path d="M299 62.8 L299 62.8 L299.5 62.8 L300 62.8 L300 81.5 L299.5 81.5 L299 81.5 Z" stroke="rgb(0, 0, 0)" stroke-width="0" fill-rule="evenodd" stroke-linejoin="miter" fill="rgb(0, 0, 0)" shape-rendering="geometricPrecision" /></g></g></g></svg>