<?xml version="1.0"?><svg xmlns="http://www.w3.org/2000/svg" xmlns:xlink="http://www.w3.org/1999/xlink" viewBox="254.23 36.04 74.78 55.96" preserveAspectRatio="xMidYMid" width="100%" height="100%"><clipPath id="87"><rect x="0.5" y="0.5" width="539" height="719" /></clipPath><g id="drawing"><rect x="254.23" y="36.04" width="100%" height="100%" fill="rgb(255, 255, 255)" /><g id="page" clip-path="url(#87)"><g><text xml:space="preserve" text-anchor="end" text-rendering="geometricPrecision"><tspan x="265.6" y="89.45" font-family="Arial" font-size="10" fill="rgb(0, 0, 0)">R</tspan><tspan font-family="Arial" dy="2.26" font-size="7.5" fill="rgb(0, 0, 0)">1</tspan></text></g><g id="Solid"><path d="M288.38 70.3 L288.38 70.3 L288.38 70.88 L288.38 71.46 L266.97 83.81 L266.72 83.38 L266.47 82.95 Z" stroke="rgb(0, 0, 0)" stroke-width="0" fill-rule="evenodd" stroke-linejoin="miter" fill="rgb(0, 0, 0)" shape-rendering="geometricPrecision" /></g><g><text xml:space="preserve" text-anchor="start" text-rendering="geometricPrecision"><tspan x="311" y="89.5" font-family="Arial" font-size="10" fill="rgb(0, 0, 0)">SR</tspan><tspan font-family="Arial" dy="2.26" font-size="7.5" fill="rgb(0, 0, 0)">2</tspan></text></g><g id="Solid"><path d="M288.38 71.46 L288.38 71.46 L288.38 70.88 L288.38 70.3 L310.32 82.96 L310.07 83.39 L309.82 83.83 Z" stroke="rgb(0, 0, 0)" stroke-width="0" fill-rule="evenodd" stroke-linejoin="miter" fill="rgb(0, 0, 0)" shape-rendering="geometricPrecision" /></g><g><text xml:space="preserve" text-anchor="start" text-rendering="geometricPrecision"><tspan x="284.47" y="44.5" font-family="Arial" font-size="10" fill="rgb(0, 0, 0)">O</tspan></text></g><g id="Solid"><line x1="286.58" y1="70.88" x2="286.58" y2="46.7" stroke="rgb(0, 0, 0)" stroke-width="1" shape-rendering="auto" /><path d="M289.68 71.05 L289.68 71.05 L290.68 71.63 L290.68 46.7 L289.68 46.7 Z" stroke="rgb(0, 0, 0)" stroke-width="0" fill-rule="evenodd" stroke-linejoin="miter" fill="rgb(0, 0, 0)" shape-rendering="geometricPrecision" /><path d="M286.08 71.63 L286.08 71.63 L287.08 71.05 L287.08 46.7 L286.08 46.7 Z" stroke="rgb(0, 0, 0)" stroke-width="0" fill-rule="evenodd" stroke-linejoin="miter" fill="rgb(0, 0, 0)" shape-rendering="geometricPrecision" /></g></g></g></svg>