<?xml version="1.0" encoding="UTF-8" standalone="no"?>
<!-- Created with Inkscape (http://www.inkscape.org/) -->

<svg
   xmlns:dc="http://purl.org/dc/elements/1.1/"
   xmlns:cc="http://creativecommons.org/ns#"
   xmlns:rdf="http://www.w3.org/1999/02/22-rdf-syntax-ns#"
   xmlns:svg="http://www.w3.org/2000/svg"
   xmlns="http://www.w3.org/2000/svg"
   xmlns:sodipodi="http://sodipodi.sourceforge.net/DTD/sodipodi-0.dtd"
   xmlns:inkscape="http://www.inkscape.org/namespaces/inkscape"
   version="1.1"
   id="svg815"
   width="800"
   height="800"
   viewBox="0 0 800 800"
   sodipodi:docname="point_of_interest.svg"
   inkscape:version="0.92.2 (5c3e80d, 2017-08-06)">
  <metadata
     id="metadata821">
    <rdf:RDF>
      <cc:Work
         rdf:about="">
        <dc:format>image/svg+xml</dc:format>
        <dc:type
           rdf:resource="http://purl.org/dc/dcmitype/StillImage" />
        <dc:title />
      </cc:Work>
    </rdf:RDF>
  </metadata>
  <defs
     id="defs819" />
  <sodipodi:namedview
     pagecolor="#ffffff"
     bordercolor="#666666"
     borderopacity="1"
     objecttolerance="10"
     gridtolerance="10"
     guidetolerance="10"
     inkscape:pageopacity="0"
     inkscape:pageshadow="2"
     inkscape:window-width="1920"
     inkscape:window-height="1001"
     id="namedview817"
     showgrid="false"
     inkscape:zoom="2.9309576"
     inkscape:cx="379.7907"
     inkscape:cy="403.58968"
     inkscape:window-x="-9"
     inkscape:window-y="-9"
     inkscape:window-maximized="1"
     inkscape:current-layer="svg815" />
  <path
     inkscape:connector-curvature="0"
     style="fill:#000000;fill-opacity:1;stroke:#fffffa;stroke-width:2;stroke-linecap:butt;stroke-linejoin:miter;stroke-miterlimit:4;stroke-dasharray:none;stroke-opacity:1"
     d="m 233.91856,784.68217 c 39.67204,-14.29651 77.7267,-63.6077 94.36829,-90.64492 25.09645,-40.48894 49.48228,-117.85418 38.08495,-201.83471 -1.84306,-77.14695 -61.97937,-164.73083 -95.99863,-221.34989 29.32506,94.79355 67.94212,193.74889 44.06564,283.19215 -15.9712,74.22369 -33.45115,105.24194 -72.71725,144.52329 -31.394,29.0674 -78.72608,32.01287 -84.64392,-10.97976 -24.06045,-127.89901 71.41762,-179.58383 164.15013,-217.32261 -61.70796,17.9134 -136.76051,7.13545 -198.45001,114.18647 -25.35009,49.99158 -29.40696,115.73133 -11.49622,157.63598 30.61885,59.82972 66.76579,62.93333 122.63702,42.594 z"
     id="path921-7"
     sodipodi:nodetypes="ccccccccccc" />
  <path
     inkscape:connector-curvature="0"
     style="fill:#000000;fill-opacity:1;stroke:none;stroke-width:2;stroke-linecap:butt;stroke-linejoin:miter;stroke-miterlimit:4;stroke-dasharray:none;stroke-opacity:1"
     d="m 788.42984,564.65533 c -14.29651,-39.67204 -63.6077,-77.7267 -90.64492,-94.36829 -40.48894,-25.09645 -117.85418,-49.48228 -201.83471,-38.08495 -77.14695,1.84306 -164.73083,61.97937 -221.34989,95.99863 94.79355,-29.32506 193.74889,-67.94212 283.19215,-44.06564 74.22369,15.9712 105.24194,33.45115 144.52329,72.71725 29.0674,31.394 32.01288,78.72608 -10.97976,84.64392 -127.89901,24.06045 -179.58383,-71.41762 -217.32261,-164.15013 17.9134,61.70796 7.13545,136.76051 114.18647,198.45001 49.99158,25.35009 115.73133,29.40696 157.63598,11.49622 59.82972,-30.61885 62.93333,-66.76579 42.594,-122.63702 z"
     id="path921-4"
     sodipodi:nodetypes="ccccccccccc" />
  <path
     inkscape:connector-curvature="0"
     style="fill:#000000;fill-opacity:1;stroke:#fffffa;stroke-width:2;stroke-linecap:butt;stroke-linejoin:miter;stroke-miterlimit:4;stroke-dasharray:none;stroke-opacity:1"
     d="m 566.19526,17.20678 c -39.67204,14.296504 -77.7267,63.607695 -94.36829,90.64492 -25.09645,40.48894 -49.48228,117.85418 -38.08495,201.83471 1.84306,77.14695 61.97937,164.73083 95.99863,221.34989 -29.32506,-94.79355 -67.94212,-193.74889 -44.06564,-283.19215 15.9712,-74.22369 33.45115,-105.24194 72.71725,-144.52329 31.394,-29.067405 78.72608,-32.012878 84.64392,10.97976 24.06045,127.89901 -71.41762,179.58383 -164.15013,217.32261 61.70796,-17.9134 136.76051,-7.13545 198.45001,-114.18647 C 702.68615,167.44518 706.74302,101.70543 688.83228,59.800777 658.21343,-0.0289406 622.06649,-3.1325569 566.19526,17.20678 Z"
     id="path921"
     sodipodi:nodetypes="ccccccccccc" />
  <path
     inkscape:connector-curvature="0"
     style="fill:#000000;fill-opacity:1;stroke:none;stroke-width:2;stroke-linecap:butt;stroke-linejoin:miter;stroke-miterlimit:4;stroke-dasharray:none;stroke-opacity:1"
     d="m 11.63315,231.73914 c 14.296508,39.67204 63.607698,77.7267 90.64492,94.36829 40.48894,25.09645 117.85418,49.48228 201.83471,38.08495 77.14695,-1.84306 164.73083,-61.97937 221.34989,-95.99863 -94.79355,29.32506 -193.74889,67.94212 -283.19215,44.06564 -74.22369,-15.9712 -105.24194,-33.45115 -144.523292,-72.71725 -29.0674,-31.394 -32.01287,-78.72608 10.979762,-84.64392 C 236.626,130.83777 288.31082,226.31584 326.0496,319.04835 308.1362,257.34039 318.91415,182.28784 211.86313,120.59834 161.87155,95.248249 96.131798,91.191379 54.227148,109.10212 -5.60257,139.72097 -8.70618,175.86791 11.63315,231.73914 Z"
     id="path921-45"
     sodipodi:nodetypes="ccccccccccc" />
  <path
     style="fill:none;fill-opacity:1;stroke:#ffffff;stroke-width:3;stroke-linecap:butt;stroke-linejoin:miter;stroke-miterlimit:4;stroke-dasharray:none;stroke-opacity:1"
     d="m 324.27317,362.33242 c 71.86379,-10.2898 149.48906,-62.93786 201.1895,-94.13867 -94.57972,29.98512 -151.32551,50.1195 -225.35747,51.3789"
     id="path921-45-5-9"
     inkscape:connector-curvature="0"
     sodipodi:nodetypes="ccc" />
  <path
     style="fill:none;fill-opacity:1;stroke:#fffffc;stroke-width:2.5;stroke-linecap:butt;stroke-linejoin:miter;stroke-miterlimit:4;stroke-dasharray:none;stroke-opacity:1"
     d="m 433.98135,321.99955 c 7.1535,71.74316 64.55849,157.3363 95.7593,209.03675 -29.98512,-94.57972 -52.99888,-160.85506 -51.01701,-234.88702"
     id="path921-45-5-9-2"
     inkscape:connector-curvature="0"
     sodipodi:nodetypes="ccc" />
  <path
     style="fill:none;fill-opacity:1;stroke:#fffffc;stroke-width:2.5;stroke-linecap:butt;stroke-linejoin:miter;stroke-miterlimit:4;stroke-dasharray:none;stroke-opacity:1"
     d="m 472.88973,434.23264 c -71.86379,10.28981 -146.58897,62.76727 -198.28941,93.96808 94.57973,-29.98512 147.57247,-50.29009 221.60442,-51.54948"
     id="path921-45-5-9-2-4"
     inkscape:connector-curvature="0"
     sodipodi:nodetypes="ccc" />
  <path
     style="fill:none;fill-opacity:1;stroke:#fffffc;stroke-width:2.5;stroke-linecap:butt;stroke-linejoin:miter;stroke-miterlimit:4;stroke-dasharray:none;stroke-opacity:1"
     d="m 324.27318,362.33243 c 71.8638,-10.28981 149.48906,-62.93786 201.18949,-94.13868 -94.57971,29.98512 -151.32549,50.11951 -225.35745,51.37889"
     id="path921-45-5-9-2-2"
     inkscape:connector-curvature="0"
     sodipodi:nodetypes="ccc" />
  <path
     style="fill:none;fill-opacity:1;stroke:#fffffc;stroke-width:2.5;stroke-linecap:butt;stroke-linejoin:miter;stroke-miterlimit:4;stroke-dasharray:none;stroke-opacity:1"
     d="m 364.93833,474.43045 c -10.28981,-71.86379 -62.85256,-153.0715 -94.56516,-203.5778 29.64394,95.43269 49.94892,153.8844 51.20831,227.91636"
     id="path921-45-5-9-2-5"
     inkscape:connector-curvature="0"
     sodipodi:nodetypes="ccc" />
</svg>
