<?xml version="1.0" encoding="UTF-8" standalone="no"?>
<!-- Created with Inkscape (http://www.inkscape.org/) -->

<svg
   xmlns:dc="http://purl.org/dc/elements/1.1/"
   xmlns:cc="http://creativecommons.org/ns#"
   xmlns:rdf="http://www.w3.org/1999/02/22-rdf-syntax-ns#"
   xmlns:svg="http://www.w3.org/2000/svg"
   xmlns="http://www.w3.org/2000/svg"
   xmlns:sodipodi="http://sodipodi.sourceforge.net/DTD/sodipodi-0.dtd"
   xmlns:inkscape="http://www.inkscape.org/namespaces/inkscape"
   width="100mm"
   height="100mm"
   viewBox="0 0 100 100"
   version="1.1"
   id="svg8"
   inkscape:version="0.92.2 (5c3e80d, 2017-08-06)"
   sodipodi:docname="Points_of_Interest - Copy.svg">
  <defs
     id="defs2" />
  <sodipodi:namedview
     id="base"
     pagecolor="#ffffff"
     bordercolor="#666666"
     borderopacity="1.0"
     inkscape:pageopacity="0.0"
     inkscape:pageshadow="2"
     inkscape:zoom="0.98994949"
     inkscape:cx="-384.25106"
     inkscape:cy="119.68821"
     inkscape:document-units="mm"
     inkscape:current-layer="layer1"
     showgrid="false"
     inkscape:window-width="1920"
     inkscape:window-height="1001"
     inkscape:window-x="-9"
     inkscape:window-y="-9"
     inkscape:window-maximized="1" />
  <metadata
     id="metadata5">
    <rdf:RDF>
      <cc:Work
         rdf:about="">
        <dc:format>image/svg+xml</dc:format>
        <dc:type
           rdf:resource="http://purl.org/dc/dcmitype/StillImage" />
        <dc:title></dc:title>
      </cc:Work>
    </rdf:RDF>
  </metadata>
  <g
     inkscape:label="Layer 1"
     inkscape:groupmode="layer"
     id="layer1"
     transform="translate(0,-197)">
    <path
       inkscape:connector-curvature="0"
       style="fill:#000000;fill-rule:nonzero;stroke:none;stroke-width:0.35555556"
       d="M 20.925779,196.99999 C 9.369146,196.99999 0,206.36913 0,217.92577 c 0,11.55746 9.369146,20.92644 20.925779,20.92644 h 9.815103 v 16.29621 H 20.925779 C 9.369146,255.14842 0,264.51714 0,276.0742 0,287.63126 9.369146,297 20.925779,297 c 11.557067,0 20.926433,-9.36874 20.926433,-20.9258 v -9.81445 h 16.296225 v 9.81445 c 0,11.55706 9.36897,20.9258 20.926426,20.9258 C 90.63186,297 100,287.63126 100,276.0742 100,264.51714 90.63186,255.14842 79.074863,255.14842 h -9.815106 v -16.29621 h 9.815106 C 90.63186,238.85221 100,229.48323 100,217.92577 c 0,-11.55664 -9.36814,-20.92578 -20.925137,-20.92578 -11.557468,0 -20.926426,9.36914 -20.926426,20.92578 v 9.81511 H 41.852212 v -9.81511 c 0,-11.55664 -9.369366,-20.92578 -20.926433,-20.92578 z m 0,11.11134 c 5.420666,0 9.815103,4.3938 9.815103,9.81444 v 9.81511 h -9.815103 c -5.420632,0 -9.814452,-4.39445 -9.814452,-9.81511 0,-5.42064 4.39382,-9.81444 9.814452,-9.81444 z m 58.149084,0 c 5.420673,0 9.814447,4.3938 9.814447,9.81444 0,5.42066 -4.393774,9.81511 -9.814447,9.81511 h -9.815106 v -9.81511 c 0,-5.42064 4.394846,-9.81444 9.815106,-9.81444 z m -37.222651,30.74088 h 16.296225 v 16.29621 H 41.852212 Z m -20.926433,27.40754 h 9.815103 v 9.81445 c 0,3.96954 -2.391627,7.54878 -6.058593,9.06773 -3.667733,1.51967 -7.889647,0.6797 -10.696613,-2.12762 -2.8069,-2.80657 -3.646873,-7.029 -2.127607,-10.69596 1.518934,-3.6681 5.098143,-6.0586 9.06771,-6.0586 z m 48.333978,0 h 9.815106 c 5.420673,0 9.814447,4.39416 9.814447,9.81445 0,5.42024 -4.393761,9.81513 -9.814447,9.81513 -5.420271,0 -9.815106,-4.39489 -9.815106,-9.81513 z"
       id="path19" />
  </g>
</svg>
