<?xml version="1.0"?><svg xmlns="http://www.w3.org/2000/svg" xmlns:xlink="http://www.w3.org/1999/xlink" viewBox="113.81 147.18 52.57 43.14" preserveAspectRatio="xMidYMid" width="100%" height="100%"><clipPath id="11"><rect x="0.5" y="0.5" width="539" height="719" /></clipPath><g id="drawing"><rect x="113.81" y="147.18" width="100%" height="100%" fill="rgb(255, 255, 255)" /><g id="page" clip-path="url(#11)"><g id="Solid"><line x1="135.38" y1="166.95" x2="165.38" y2="166.95" stroke="rgb(0, 0, 0)" stroke-width="1" shape-rendering="auto" /><path d="M134.79 170.05 L134.79 170.05 L133.79 171.05 L165.38 171.05 L165.38 170.05 Z" stroke="rgb(0, 0, 0)" stroke-width="0" fill-rule="evenodd" stroke-linejoin="miter" fill="rgb(0, 0, 0)" shape-rendering="geometricPrecision" /><path d="M133.79 166.45 L133.79 166.45 L134.79 167.45 L165.38 167.45 L165.38 166.45 Z" stroke="rgb(0, 0, 0)" stroke-width="0" fill-rule="evenodd" stroke-linejoin="miter" fill="rgb(0, 0, 0)" shape-rendering="geometricPrecision" /></g><g id="Solid"><path d="M136.09 168.75 L136.09 168.75 L135.38 168.75 L134.67 168.75 L113.81 147.89 L114.16 147.54 L114.51 147.19 Z" stroke="rgb(0, 0, 0)" stroke-width="0" fill-rule="evenodd" stroke-linejoin="miter" fill="rgb(0, 0, 0)" shape-rendering="geometricPrecision" /></g><g id="Solid"><path d="M134.67 168.75 L134.67 168.75 L135.38 168.75 L136.09 168.75 L114.51 190.31 L114.16 189.96 L113.81 189.61 Z" stroke="rgb(0, 0, 0)" stroke-width="0" fill-rule="evenodd" stroke-linejoin="miter" fill="rgb(0, 0, 0)" shape-rendering="geometricPrecision" /></g></g></g></svg>