<?xml version="1.0"?><svg xmlns="http://www.w3.org/2000/svg" xmlns:xlink="http://www.w3.org/1999/xlink" viewBox="264.75 68.88 63.38 32.5" preserveAspectRatio="xMidYMid" width="100%" height="100%"><clipPath id="38"><rect x="0.5" y="0.5" width="539" height="719" /></clipPath><g id="drawing"><rect x="264.75" y="68.88" width="100%" height="100%" fill="rgb(255, 255, 255)" /><g id="page" clip-path="url(#38)"><g><text xml:space="preserve" text-anchor="start" text-rendering="geometricPrecision"><tspan x="277.66" y="89.5" font-family="Arial" font-size="10" fill="rgb(0, 0, 0)">C</tspan></text></g><g><text xml:space="preserve" text-anchor="start" text-rendering="geometricPrecision"><tspan x="307.66" y="89.5" font-family="Arial" font-size="10" fill="rgb(0, 0, 0)">C</tspan></text></g><g id="Solid"><path d="M286.5 86.38 L286.5 86.38 L286.5 85.88 L286.5 85.38 L306.2 85.38 L306.2 85.88 L306.2 86.38 Z" stroke="rgb(0, 0, 0)" stroke-width="0" fill-rule="evenodd" stroke-linejoin="miter" fill="rgb(0, 0, 0)" shape-rendering="geometricPrecision" /></g><g id="Solid"><path d="M316.5 86.38 L316.5 86.38 L316.5 85.88 L316.5 85.38 L328.13 85.38 L328.13 85.88 L328.13 86.38 Z" stroke="rgb(0, 0, 0)" stroke-width="0" fill-rule="evenodd" stroke-linejoin="miter" fill="rgb(0, 0, 0)" shape-rendering="geometricPrecision" /></g><g id="Solid"><path d="M276.2 85.38 L276.2 85.38 L276.2 85.88 L276.2 86.38 L264.75 86.38 L264.75 85.88 L264.75 85.38 Z" stroke="rgb(0, 0, 0)" stroke-width="0" fill-rule="evenodd" stroke-linejoin="miter" fill="rgb(0, 0, 0)" shape-rendering="geometricPrecision" /></g><g id="Solid"><path d="M277.7 90.63 L277.7 90.63 L278.12 90.9 L278.54 91.16 L272.17 101.37 L271.75 101.11 L271.33 100.85 Z" stroke="rgb(0, 0, 0)" stroke-width="0" fill-rule="evenodd" stroke-linejoin="miter" fill="rgb(0, 0, 0)" shape-rendering="geometricPrecision" /></g><g id="Solid"><path d="M278.65 80.74 L278.65 80.74 L278.23 81 L277.8 81.26 L270.45 69.4 L270.88 69.14 L271.31 68.88 Z" stroke="rgb(0, 0, 0)" stroke-width="0" fill-rule="evenodd" stroke-linejoin="miter" fill="rgb(0, 0, 0)" shape-rendering="geometricPrecision" /></g><g id="Solid"><path d="M314.17 91.35 L314.17 91.35 L314.59 91.08 L315.01 90.81 L321.3 100.59 L320.88 100.86 L320.46 101.13 Z" stroke="rgb(0, 0, 0)" stroke-width="0" fill-rule="evenodd" stroke-linejoin="miter" fill="rgb(0, 0, 0)" shape-rendering="geometricPrecision" /></g><g id="Solid"><path d="M315.05 81.24 L315.05 81.24 L314.64 80.95 L314.23 80.67 L321.84 69.6 L322.25 69.88 L322.66 70.16 Z" stroke="rgb(0, 0, 0)" stroke-width="0" fill-rule="evenodd" stroke-linejoin="miter" fill="rgb(0, 0, 0)" shape-rendering="geometricPrecision" /></g></g></g></svg>