<?xml version="1.0"?><svg xmlns="http://www.w3.org/2000/svg" xmlns:xlink="http://www.w3.org/1999/xlink" viewBox="267.72 37.54 93.55 25.61" preserveAspectRatio="xMidYMid" width="100%" height="100%"><clipPath id="95"><rect x="0.5" y="0.5" width="539" height="719" /></clipPath><g id="drawing"><rect x="267.72" y="37.54" width="100%" height="100%" fill="rgb(255, 255, 255)" /><g id="page" clip-path="url(#95)"><g><text xml:space="preserve" text-anchor="end" text-rendering="geometricPrecision"><tspan x="279.08" y="60.95" font-family="Arial" font-size="10" fill="rgb(0, 0, 0)">R</tspan><tspan font-family="Arial" dy="2.26" font-size="7.5" fill="rgb(0, 0, 0)">1</tspan></text></g><g><text xml:space="preserve" text-anchor="start" text-rendering="geometricPrecision"><tspan x="298.5" y="46" font-family="Arial" font-size="10" fill="rgb(0, 0, 0)">S</tspan></text></g><g id="Solid"><path d="M280.46 55.31 L280.46 55.31 L280.21 54.88 L279.96 54.45 L297.02 44.6 L297.27 45.03 L297.52 45.46 Z" stroke="rgb(0, 0, 0)" stroke-width="0" fill-rule="evenodd" stroke-linejoin="miter" fill="rgb(0, 0, 0)" shape-rendering="geometricPrecision" /></g><g><text xml:space="preserve" text-anchor="start" text-rendering="geometricPrecision"><tspan x="324.48" y="61" font-family="Arial" font-size="10" fill="rgb(0, 0, 0)">S</tspan></text></g><g id="Solid"><path d="M306.18 45.45 L306.18 45.45 L306.43 45.02 L306.68 44.59 L323.82 54.48 L323.57 54.91 L323.32 55.35 Z" stroke="rgb(0, 0, 0)" stroke-width="0" fill-rule="evenodd" stroke-linejoin="miter" fill="rgb(0, 0, 0)" shape-rendering="geometricPrecision" /></g><g><text xml:space="preserve" text-anchor="start" text-rendering="geometricPrecision"><tspan x="349.91" y="45.95" font-family="Arial" font-size="10" fill="rgb(0, 0, 0)">R</tspan><tspan font-family="Arial" dy="2.26" font-size="7.5" fill="rgb(0, 0, 0)">2</tspan></text></g><g id="Solid"><path d="M332.48 55.28 L332.48 55.28 L332.23 54.84 L331.98 54.41 L348.72 44.75 L348.97 45.18 L349.22 45.61 Z" stroke="rgb(0, 0, 0)" stroke-width="0" fill-rule="evenodd" stroke-linejoin="miter" fill="rgb(0, 0, 0)" shape-rendering="geometricPrecision" /></g></g></g></svg>