<?xml version="1.0"?><svg xmlns="http://www.w3.org/2000/svg" xmlns:xlink="http://www.w3.org/1999/xlink" viewBox="280.45 81.04 70.55 83.41" preserveAspectRatio="xMidYMid" width="100%" height="100%"><clipPath id="118"><rect x="0.5" y="0.5" width="539" height="719" /></clipPath><g id="drawing"><rect x="280.45" y="81.04" width="100%" height="100%" fill="rgb(255, 255, 255)" /><g id="page" clip-path="url(#118)"><g><text xml:space="preserve" text-anchor="start" text-rendering="geometricPrecision"><tspan x="310.45" y="89.5" font-family="Arial" font-size="10" fill="rgb(0, 0, 0)">OH</tspan></text></g><g><text xml:space="preserve" text-anchor="start" text-rendering="geometricPrecision"><tspan x="310.84" y="119.45" font-family="Arial" font-size="10" fill="rgb(0, 0, 0)">P</tspan></text></g><g id="Solid"><path d="M313.86 91.7 L313.86 91.7 L314.36 91.7 L314.86 91.7 L314.86 110.3 L314.36 110.3 L313.86 110.3 Z" stroke="rgb(0, 0, 0)" stroke-width="0" fill-rule="evenodd" stroke-linejoin="miter" fill="rgb(0, 0, 0)" shape-rendering="geometricPrecision" /></g><g><text xml:space="preserve" text-anchor="start" text-rendering="geometricPrecision"><tspan x="340.45" y="119.5" font-family="Arial" font-size="10" fill="rgb(0, 0, 0)">O</tspan><tspan font-family="Arial" dy="-4.07" font-size="7.5" fill="rgb(0, 0, 0)">-</tspan></text></g><g id="Solid"><path d="M318.9 116.37 L318.9 116.37 L318.9 115.87 L318.9 115.37 L339 115.37 L339 115.87 L339 116.37 Z" stroke="rgb(0, 0, 0)" stroke-width="0" fill-rule="evenodd" stroke-linejoin="miter" fill="rgb(0, 0, 0)" shape-rendering="geometricPrecision" /></g><g><text xml:space="preserve" text-anchor="start" text-rendering="geometricPrecision"><tspan x="280.45" y="119.5" font-family="Arial" font-size="10" fill="rgb(0, 0, 0)">O</tspan></text></g><g id="Solid"><line x1="309.7" y1="117.39" x2="289.8" y2="117.39" stroke="rgb(0, 0, 0)" stroke-width="1" shape-rendering="auto" /><path d="M309.7 114.85 L309.7 114.85 L309.7 113.85 L289.8 113.85 L289.8 114.85 Z" stroke="rgb(0, 0, 0)" stroke-width="0" fill-rule="evenodd" stroke-linejoin="miter" fill="rgb(0, 0, 0)" shape-rendering="geometricPrecision" /><path d="M309.7 117.89 L309.7 117.89 L309.7 116.89 L289.8 116.89 L289.8 117.89 Z" stroke="rgb(0, 0, 0)" stroke-width="0" fill-rule="evenodd" stroke-linejoin="miter" fill="rgb(0, 0, 0)" shape-rendering="geometricPrecision" /></g><g><text xml:space="preserve" text-anchor="start" text-rendering="geometricPrecision"><tspan x="310.45" y="149.5" font-family="Arial" font-size="10" fill="rgb(0, 0, 0)">O</tspan></text></g><g id="Solid"><path d="M313.86 121.5 L313.86 121.5 L314.36 121.5 L314.86 121.5 L314.86 140.3 L314.36 140.3 L313.86 140.3 Z" stroke="rgb(0, 0, 0)" stroke-width="0" fill-rule="evenodd" stroke-linejoin="miter" fill="rgb(0, 0, 0)" shape-rendering="geometricPrecision" /></g><g><text xml:space="preserve" text-anchor="start" text-rendering="geometricPrecision"><tspan x="336.43" y="164.45" font-family="Arial" font-size="10" fill="rgb(0, 0, 0)">R</tspan></text></g><g id="Solid"><path d="M319.18 149.23 L319.18 149.23 L319.43 148.8 L319.68 148.37 L335.82 157.68 L335.57 158.11 L335.32 158.55 Z" stroke="rgb(0, 0, 0)" stroke-width="0" fill-rule="evenodd" stroke-linejoin="miter" fill="rgb(0, 0, 0)" shape-rendering="geometricPrecision" /></g></g></g></svg>