<?xml version="1.0"?><svg xmlns="http://www.w3.org/2000/svg" xmlns:xlink="http://www.w3.org/1999/xlink" viewBox="287.47 57.41 43.54 38.25" preserveAspectRatio="xMidYMid" width="100%" height="100%"><clipPath id="67"><rect x="0.5" y="0.5" width="539" height="719" /></clipPath><g id="drawing"><rect x="287.47" y="57.41" width="100%" height="100%" fill="rgb(255, 255, 255)" /><g id="page" clip-path="url(#67)"><g><text xml:space="preserve" text-anchor="start" text-rendering="geometricPrecision"><tspan x="306.53" y="79.2" font-family="Arial" font-size="10" fill="rgb(0, 0, 0)">N</tspan></text></g><g><text xml:space="preserve" text-anchor="start" text-rendering="geometricPrecision"><tspan x="287.47" y="79.2" font-family="Arial" font-size="10" fill="rgb(0, 0, 0)">R</tspan></text></g><g id="Solid"><path d="M305.3 75.13 L305.3 75.13 L305.3 75.63 L305.3 76.13 L295.6 76.13 L295.6 75.63 L295.6 75.13 Z" stroke="rgb(0, 0, 0)" stroke-width="0" fill-rule="evenodd" stroke-linejoin="miter" fill="rgb(0, 0, 0)" shape-rendering="geometricPrecision" /></g><g><text xml:space="preserve" text-anchor="start" text-rendering="geometricPrecision"><tspan x="323.81" y="65.11" font-family="Arial" font-size="10" fill="rgb(0, 0, 0)">R</tspan></text></g><g id="Solid"><path d="M314.87 72.47 L314.87 72.47 L314.56 72.08 L314.25 71.69 L322.73 64.89 L323.04 65.28 L323.35 65.67 Z" stroke="rgb(0, 0, 0)" stroke-width="0" fill-rule="evenodd" stroke-linejoin="miter" fill="rgb(0, 0, 0)" shape-rendering="geometricPrecision" /></g><g><text xml:space="preserve" text-anchor="start" text-rendering="geometricPrecision"><tspan x="322.56" y="95.66" font-family="Arial" font-size="10" fill="rgb(0, 0, 0)">R</tspan></text></g><g id="Solid"><path d="M314.05 80.29 L314.05 80.29 L314.41 79.94 L314.76 79.59 L322.35 87.23 L321.99 87.59 L321.64 87.94 Z" stroke="rgb(0, 0, 0)" stroke-width="0" fill-rule="evenodd" stroke-linejoin="miter" fill="rgb(0, 0, 0)" shape-rendering="geometricPrecision" /></g></g></g></svg>